<svg width="73" height="56" viewBox="0 0 73 56" fill="none" xmlns="http://www.w3.org/2000/svg">
<path d="M60.9808 5.47997C56.3941 3.38223 51.5231 1.85333 46.4388 1C45.7984 2.10223 45.0874 3.59553 44.5898 4.7689C39.1818 3.98663 33.8128 3.98663 28.4795 4.7689C27.9817 3.59553 27.235 2.10223 26.6305 1C21.5106 1.85333 16.6395 3.38223 12.0848 5.47997C2.87598 19.0622 0.387072 32.3243 1.63151 45.4087C7.74704 49.853 13.6493 52.5553 19.4484 54.3333C20.8706 52.4133 22.1507 50.351 23.2529 48.182C21.1551 47.4 19.164 46.44 17.244 45.302C17.7418 44.9467 18.2396 44.5557 18.7018 44.1643C30.2929 49.4623 42.8474 49.4623 54.2964 44.1643C54.7941 44.5557 55.2564 44.9467 55.7541 45.302C53.8341 46.44 51.8431 47.4 49.7451 48.182C50.8474 50.351 52.1274 52.4133 53.5498 54.3333C59.3451 52.5553 65.2831 49.853 71.3664 45.4087C72.8954 30.2623 68.9451 17.1067 60.9808 5.47997ZM24.8529 37.3377C21.3684 37.3377 18.5239 34.1733 18.5239 30.2977C18.5239 26.4223 21.2973 23.2577 24.8529 23.2577C28.3728 23.2577 31.2527 26.4223 31.1816 30.2977C31.1816 34.1733 28.3728 37.3377 24.8529 37.3377ZM48.2164 37.3377C44.7318 37.3377 41.8838 34.1733 41.8838 30.2977C41.8838 26.4223 44.6608 23.2577 48.2164 23.2577C51.7364 23.2577 54.6164 26.4223 54.5451 30.2977C54.5451 34.1733 51.7721 37.3377 48.2164 37.3377Z" stroke="white" stroke-width="2" stroke-linejoin="round"/>
</svg>
