<svg width="70" height="68" viewBox="0 0 70 68" fill="none" xmlns="http://www.w3.org/2000/svg">
<path fill-rule="evenodd" clip-rule="evenodd" d="M34.9998 1.66666C16.5832 1.66666 1.6665 16.5833 1.6665 35C1.6665 49.75 11.2082 62.2083 24.4582 66.625C26.1248 66.9167 26.7498 65.9167 26.7498 65.0417C26.7498 64.25 26.7082 61.625 26.7082 58.8333C18.3332 60.375 16.1665 56.7917 15.4998 54.9167C15.1248 53.9583 13.4998 51 12.0832 50.2083C10.9165 49.5833 9.24984 48.0417 12.0415 48C14.6665 47.9583 16.5415 50.4167 17.1665 51.4167C20.1665 56.4583 24.9582 55.0417 26.8748 54.1667C27.1665 52 28.0415 50.5417 28.9998 49.7083C21.5832 48.875 13.8332 46 13.8332 33.25C13.8332 29.625 15.1248 26.625 17.2498 24.2917C16.9165 23.4583 15.7498 20.0417 17.5832 15.4583C17.5832 15.4583 20.3748 14.5833 26.7498 18.875C29.4165 18.125 32.2498 17.75 35.0832 17.75C37.9165 17.75 40.7498 18.125 43.4165 18.875C49.7915 14.5417 52.5832 15.4583 52.5832 15.4583C54.4165 20.0417 53.2498 23.4583 52.9165 24.2917C55.0415 26.625 56.3332 29.5833 56.3332 33.25C56.3332 46.0417 48.5415 48.875 41.1248 49.7083C42.3332 50.75 43.3748 52.75 43.3748 55.875C43.3748 60.3333 43.3332 63.9167 43.3332 65.0417C43.3332 65.9167 43.9582 66.9583 45.6248 66.625C52.2422 64.391 57.9922 60.1383 62.0658 54.465C66.1395 48.792 68.3315 41.9843 68.3332 35C68.3332 16.5833 53.4165 1.66666 34.9998 1.66666Z" stroke="white" stroke-width="2" stroke-linejoin="round"/>
</svg>
