<svg width="68" height="70" viewBox="0 0 68 70" fill="none" xmlns="http://www.w3.org/2000/svg">
<path d="M66.3886 29.4443C66.7219 31.4723 66.9166 33.5557 66.9166 35.75C66.9166 45.889 63.3053 54.4443 57.0276 60.25C51.5276 65.3333 43.9999 68.3333 34.9999 68.3333C21.9721 68.3333 10.7221 60.8333 5.24984 49.9443C2.97207 45.4443 1.6665 40.389 1.6665 35C1.6665 29.611 2.97207 24.5556 5.24984 20.0556C10.7221 9.16666 21.9721 1.66666 34.9999 1.66666C43.9999 1.66666 51.5276 4.97222 57.2776 10.3611L47.7776 19.8611C44.3053 16.5556 39.9166 14.8611 34.9999 14.8611C26.3054 14.8611 18.9443 20.7222 16.3054 28.639C15.6387 30.639 15.2498 32.7777 15.2498 35C15.2498 37.2223 15.6109 39.361 16.3054 41.361C18.9443 49.2777 26.3054 55.139 34.9999 55.139C39.4999 55.139 43.3053 53.9167 46.3053 51.9167C49.8053 49.5557 52.1666 46.0833 52.9719 41.9723H34.9999V29.4443H66.3886Z" stroke="white" stroke-width="2" stroke-linejoin="round"/>
</svg>
