<svg width="70" height="70" viewBox="0 0 70 70" fill="none" xmlns="http://www.w3.org/2000/svg">
<path d="M68.3333 6.56862V63.4313C68.3333 64.7313 67.8166 65.9783 66.8973 66.8977C65.9783 67.817 64.7313 68.3333 63.4313 68.3333H6.56847C5.26837 68.3333 4.02154 67.817 3.10224 66.8977C2.18297 65.9783 1.6665 64.7313 1.6665 63.4313V6.56862C1.6665 5.26852 2.18297 4.02169 3.10224 3.10242C4.02154 2.18312 5.26837 1.66666 6.56847 1.66666H63.4313C64.7313 1.66666 65.9783 2.18312 66.8973 3.10242C67.8166 4.02169 68.3333 5.26852 68.3333 6.56862ZM21.2743 27.1569H11.4704V58.5293H21.2743V27.1569ZM22.1567 16.3725C22.1619 15.631 22.0209 14.8956 21.7419 14.2085C21.4629 13.5214 21.0512 12.896 20.5305 12.368C20.0097 11.8399 19.3901 11.4196 18.7069 11.1311C18.0238 10.8426 17.2904 10.6914 16.5489 10.6863H16.3724C14.8643 10.6863 13.418 11.2854 12.3516 12.3517C11.2852 13.4181 10.6861 14.8645 10.6861 16.3725C10.6861 17.8806 11.2852 19.327 12.3516 20.3934C13.418 21.4597 14.8643 22.0588 16.3724 22.0588C17.114 22.0771 17.852 21.949 18.5441 21.6819C19.2362 21.4149 19.869 21.0141 20.4061 20.5024C20.9433 19.9907 21.3744 19.3782 21.6748 18.6999C21.9751 18.0215 22.1389 17.2907 22.1567 16.549V16.3725ZM58.5293 39.4707C58.5293 30.0393 52.5293 26.3726 46.5686 26.3726C44.6169 26.2748 42.6736 26.6905 40.9326 27.5782C39.1919 28.4657 37.7139 29.7943 36.6469 31.4313H36.3723V27.1569H27.1567V58.5293H36.9606V41.843C36.8189 40.1343 37.3573 38.4383 38.4586 37.124C39.5599 35.8097 41.1356 34.983 42.8429 34.8237H43.2156C46.3333 34.8237 48.6469 36.7843 48.6469 41.7253V58.5293H58.4509L58.5293 39.4707Z" stroke="white" stroke-width="2" stroke-linejoin="round"/>
</svg>
