<svg width="70" height="70" viewBox="0 0 70 70" fill="none" xmlns="http://www.w3.org/2000/svg">
<path d="M26.1104 1.66666C22.4285 1.66666 19.4442 4.65769 19.4442 8.34626C19.4433 9.22256 19.6151 10.0905 19.9496 10.9004C20.2841 11.7103 20.7749 12.4464 21.3939 13.0667C22.0129 13.687 22.7481 14.1792 23.5573 14.5154C24.3666 14.8515 25.2341 15.025 26.1104 15.0259H32.7776V8.34626C32.7793 6.57639 32.0776 4.87842 30.8273 3.62579C29.5769 2.37312 27.8803 1.66842 26.1104 1.66666ZM26.1104 19.479H8.33274C4.65084 19.479 1.66651 22.47 1.66651 26.1597C1.66651 29.8483 4.65084 32.8393 8.33274 32.8393H26.1115C29.7923 32.8393 32.7776 29.8483 32.7776 26.1597C32.7776 22.47 29.7923 19.479 26.1104 19.479Z" stroke="white" stroke-width="2" stroke-linejoin="round"/>
<path d="M68.3333 26.1597C68.3333 22.47 65.3476 19.479 61.6659 19.479C57.9839 19.479 54.9996 22.47 54.9996 26.1597V32.8393H61.6659C63.4356 32.8377 65.1323 32.1327 66.3826 30.8803C67.6329 29.6277 68.3346 27.9296 68.3333 26.1597ZM50.5556 26.1597V8.34626C50.5569 6.57639 49.8553 4.87842 48.6049 3.62579C47.3546 2.37312 45.6579 1.66842 43.8883 1.66666C40.2063 1.66666 37.2219 4.65769 37.2219 8.34626V26.1586C37.2219 29.8493 40.2063 32.8403 43.8883 32.8403C45.6579 32.8387 47.3546 32.134 48.6049 30.8813C49.8553 29.6287 50.5569 27.9296 50.5556 26.1597Z" stroke="white" stroke-width="2" stroke-linejoin="round"/>
<path d="M43.8883 68.465C45.6579 68.4633 47.3546 67.7586 48.6049 66.506C49.8553 65.2533 50.5569 63.5553 50.5556 61.7853C50.5569 60.0157 49.8553 58.3176 48.6049 57.065C47.3546 55.8123 45.6579 55.1077 43.8883 55.1057H37.2219V61.7853C37.2219 65.474 40.2063 68.465 43.8883 68.465ZM43.8883 50.6527H61.6669C65.3476 50.6527 68.3333 47.6617 68.3333 43.972C68.3346 42.202 67.6329 40.504 66.3826 39.2517C65.1323 37.999 63.4356 37.294 61.6659 37.2923H43.8883C40.2063 37.2923 37.2219 40.2833 37.2219 43.972C37.2209 44.8483 37.3926 45.7163 37.7273 46.526C38.0619 47.336 38.5526 48.072 39.1716 48.6923C39.7906 49.3127 40.5256 49.805 41.3349 50.141C42.1443 50.4773 43.0119 50.652 43.8883 50.6527Z" stroke="white" stroke-width="2" stroke-linejoin="round"/>
<path d="M1.66651 43.972C1.66564 44.8483 1.83737 45.7163 2.17191 46.526C2.50641 47.336 2.99721 48.072 3.61624 48.6923C4.23524 49.3127 4.97037 49.805 5.77961 50.141C6.58887 50.4773 7.45644 50.6506 8.33274 50.6516C10.1026 50.6496 11.7993 49.945 13.0496 48.6923C14.3 47.44 15.0015 45.742 15.0001 43.972V37.2923H8.33274C4.65084 37.2923 1.66651 40.2833 1.66651 43.972ZM19.4442 43.972V61.7843C19.4442 65.474 22.4285 68.465 26.1104 68.465C27.8803 68.4633 29.5769 67.7586 30.8273 66.506C32.0776 65.2533 32.7793 63.5553 32.7776 61.7853V43.972C32.7786 43.0957 32.6069 42.2277 32.2723 41.4177C31.9376 40.6077 31.4469 39.8713 30.8276 39.2513C30.2086 38.631 29.4733 38.1387 28.6639 37.8027C27.8545 37.4663 26.9868 37.293 26.1104 37.2923C22.4285 37.2923 19.4442 40.2833 19.4442 43.972Z" stroke="white" stroke-width="2" stroke-linejoin="round"/>
</svg>
