<svg width="70" height="70" viewBox="0 0 70 70" fill="none" xmlns="http://www.w3.org/2000/svg">
<path fill-rule="evenodd" clip-rule="evenodd" d="M68.3234 35C68.3234 53.4093 53.3994 68.3333 34.9901 68.3333C16.5806 68.3333 1.65674 53.4093 1.65674 35C1.65674 16.5905 16.5806 1.66666 34.9901 1.66666C53.3994 1.66666 68.3234 16.5905 68.3234 35ZM36.1844 26.2748C32.9424 27.6233 26.4626 30.4143 16.7453 34.648C15.1674 35.2757 14.3408 35.8897 14.2655 36.4897C14.1383 37.5043 15.4087 37.9037 17.1386 38.4477C17.3739 38.5217 17.6177 38.5983 17.8676 38.6793C19.5696 39.2327 21.859 39.88 23.0492 39.9057C24.1288 39.929 25.3337 39.484 26.664 38.5703C35.7431 32.4417 40.4301 29.344 40.7241 29.277C40.9318 29.23 41.2194 29.1707 41.4144 29.344C41.6094 29.5173 41.5901 29.8453 41.5694 29.9333C41.4438 30.47 36.4571 35.106 33.8764 37.505C33.0721 38.253 32.5014 38.7833 32.3848 38.9047C32.1234 39.176 31.8571 39.4327 31.6011 39.6793C30.0201 41.2037 28.8341 42.3467 31.6668 44.2133C33.0278 45.1103 34.1171 45.852 35.2038 46.592C36.3904 47.4003 37.5741 48.2063 39.1058 49.2103C39.4958 49.466 39.8684 49.7317 40.2314 49.9903C41.6124 50.975 42.8531 51.8597 44.3861 51.7183C45.2768 51.6367 46.1968 50.799 46.6641 48.301C47.7684 42.3977 49.9391 29.6067 50.4408 24.336C50.4848 23.8743 50.4294 23.2833 50.3848 23.0238C50.3404 22.7644 50.2478 22.3947 49.9104 22.1211C49.5111 21.797 48.8944 21.7287 48.6188 21.7333C47.3651 21.7557 45.4414 22.4245 36.1844 26.2748Z" stroke="white" stroke-width="2" stroke-linejoin="round"/>
</svg>
